<?xml version="1.0" standalone="no"?>
<!DOCTYPE svg PUBLIC "-//W3C//DTD SVG 20010904//EN"
 "http://www.w3.org/TR/2001/REC-SVG-20010904/DTD/svg10.dtd">
<svg version="1.0" xmlns="http://www.w3.org/2000/svg"
 width="128.000000pt" height="128.000000pt" viewBox="0 0 128.000000 128.000000"
 preserveAspectRatio="xMidYMid meet">

<g transform="translate(0.000000,128.000000) scale(0.100000,-0.100000)"
fill="#000000" stroke="none">
<path d="M988 1222 c-71 -37 -171 -104 -233 -158 -27 -23 -27 -24 -5 -13 14 6
37 20 51 30 42 30 183 87 231 94 87 13 147 -36 149 -122 l1 -38 13 35 c7 19
14 65 14 101 1 56 -2 69 -22 87 -38 36 -110 30 -199 -16z"/>
<path d="M169 870 c-41 -21 -86 -71 -101 -109 -53 -139 -15 -313 82 -369 42
-25 52 -27 175 -27 l130 0 3 63 3 62 -110 0 c-110 0 -110 0 -130 29 -12 16
-21 32 -21 35 0 3 57 7 128 8 l127 3 3 63 3 62 -131 0 c-71 0 -130 4 -130 9 0
4 9 20 21 35 l20 26 149 0 148 0 4 -142 c3 -122 6 -147 23 -173 53 -80 71 -85
322 -85 114 0 225 5 245 10 104 29 142 193 63 278 l-33 37 -106 5 c-108 5
-131 14 -124 46 3 17 16 19 141 22 l137 3 0 64 0 65 -163 0 c-186 0 -212 -7
-252 -68 -47 -75 -41 -153 19 -217 l33 -35 105 0 c107 0 128 -7 128 -42 0 -31
-35 -38 -193 -38 -214 0 -201 -14 -205 219 l-3 181 -237 0 c-214 -1 -241 -3
-273 -20z m491 -166 c0 -218 4 -226 124 -236 l30 -3 -33 -37 c-30 -34 -38 -38
-82 -38 -36 0 -56 6 -75 23 -51 43 -59 72 -64 227 l-5 145 -26 3 -27 3 36 40
c31 34 41 39 79 39 l43 0 0 -166z m430 155 c0 -6 -8 -24 -17 -40 -16 -27 -22
-29 -75 -29 -45 0 -63 -5 -78 -20 -33 -33 -24 -75 21 -94 l29 -12 -26 -37
c-75 -111 -202 49 -136 172 30 55 71 71 184 71 64 0 98 -4 98 -11z m-652 -232
l3 -37 -46 0 c-49 0 -49 0 -11 53 28 38 50 31 54 -16z m0 -199 l3 -38 -105 0
c-58 0 -106 3 -106 8 0 4 9 22 20 40 l20 33 83 -3 82 -3 3 -37z"/>
<path d="M620 264 c-125 -94 -264 -157 -352 -158 -49 -1 -61 3 -84 26 -15 14
-30 43 -34 65 l-6 38 -12 -40 c-26 -88 -2 -167 55 -179 59 -12 200 46 297 123
21 17 42 31 45 31 3 1 38 30 76 65 78 72 82 81 15 29z"/>
</g>
</svg>
