<?xml version="1.0" standalone="no"?>
<!DOCTYPE svg PUBLIC "-//W3C//DTD SVG 20010904//EN"
 "http://www.w3.org/TR/2001/REC-SVG-20010904/DTD/svg10.dtd">
<svg version="1.0" xmlns="http://www.w3.org/2000/svg"
 width="900.000000pt" height="900.000000pt" viewBox="0 0 900.000000 900.000000"
 preserveAspectRatio="xMidYMid meet">

<g transform="translate(0.000000,900.000000) scale(0.100000,-0.100000)"
fill="#000000" stroke="none">
<path d="M3460 5871 c-250 -64 -597 -259 -948 -534 -57 -44 -105 -84 -108 -89
-3 -5 27 12 66 37 206 132 487 265 673 319 131 38 207 49 320 44 125 -5 204
-36 268 -105 65 -70 82 -120 88 -253 l6 -115 33 105 c42 136 52 194 52 300 0
146 -42 234 -133 282 -59 31 -213 35 -317 9z"/>
<path d="M686 4744 c-137 -30 -275 -114 -353 -215 -55 -71 -118 -205 -143
-304 -30 -116 -37 -313 -16 -434 47 -268 159 -442 341 -532 138 -67 153 -69
587 -69 l388 0 0 190 0 189 -340 3 -339 3 -46 45 c-45 43 -74 89 -89 138 l-7
22 410 0 411 0 0 195 0 195 -410 0 c-275 0 -410 3 -410 10 0 47 83 154 137
177 26 10 127 13 477 13 l444 0 4 -362 c5 -342 6 -367 27 -433 54 -168 141
-275 276 -341 l80 -39 635 -8 c729 -9 831 -7 912 22 190 66 317 260 318 482 0
230 -112 395 -313 462 -55 18 -92 21 -342 25 -154 2 -288 8 -297 13 -10 5 -25
24 -34 41 -22 42 -11 90 27 122 l31 26 419 0 419 0 0 190 0 190 -492 0 c-545
0 -580 -3 -689 -61 -158 -85 -249 -242 -249 -434 0 -145 44 -249 143 -341 125
-116 193 -134 512 -134 134 0 256 -5 277 -10 48 -14 68 -43 68 -100 0 -37 -5
-52 -26 -71 l-26 -24 -506 -3 c-279 -2 -526 0 -549 3 -50 7 -96 48 -124 110
-16 34 -19 67 -19 215 0 96 -3 327 -7 513 l-6 337 -721 -1 c-597 0 -733 -3
-790 -15z m2910 -81 c-4 -10 -32 -62 -62 -115 l-55 -98 -225 0 c-243 0 -254
-2 -306 -57 -72 -75 -59 -193 28 -259 35 -27 44 -29 162 -34 l124 -5 -84 -110
-83 -110 -135 0 c-129 0 -138 2 -195 30 -77 37 -158 119 -193 192 -24 52 -27
69 -27 168 1 90 5 120 24 167 26 68 104 157 168 195 86 50 103 52 497 52 347
1 368 0 362 -16z m-1464 -475 c2 -398 6 -488 18 -513 32 -66 73 -116 118 -142
47 -28 48 -28 256 -31 l209 -3 -119 -120 -119 -119 -120 0 c-139 0 -207 14
-312 65 -109 54 -178 142 -218 280 -15 51 -18 112 -19 442 l-1 383 -172 0
c-95 0 -173 3 -173 8 -1 4 52 57 117 119 l118 112 207 1 207 0 3 -482z m-722
-218 l0 -120 -226 0 c-177 0 -224 3 -218 13 12 19 94 127 137 180 l39 47 134
0 134 0 0 -120z m-590 -470 c19 -5 160 -10 313 -10 l277 0 0 -116 0 -116 -352
5 c-344 4 -428 11 -428 38 0 11 75 162 98 197 11 17 21 22 36 17 12 -3 37 -10
56 -15z"/>
<path d="M4170 3975 l0 -785 230 0 230 0 2 248 3 247 290 6 c162 3 303 10 320
16 109 38 224 128 285 223 56 88 73 152 74 285 1 101 -3 131 -22 186 -29 84
-81 171 -135 227 -49 51 -160 108 -236 122 -31 6 -261 10 -547 10 l-494 0 0
-785z m868 385 c18 -11 41 -34 53 -52 28 -45 23 -131 -10 -177 -39 -54 -69
-61 -271 -61 l-180 0 0 155 0 155 188 0 c169 0 190 -2 220 -20z"/>
<path d="M6322 4745 c-245 -44 -426 -230 -503 -515 -20 -73 -23 -109 -24 -260
0 -150 3 -188 23 -265 54 -213 168 -371 323 -448 129 -63 158 -67 592 -67
l387 0 0 190 0 190 -330 0 c-363 0 -358 -1 -416 62 -37 38 -74 104 -74 130 0
17 29 18 508 18 l509 0 21 -87 c49 -202 172 -375 312 -440 124 -59 162 -63
533 -63 l337 0 0 205 0 205 -319 0 c-308 0 -319 1 -345 21 -52 41 -81 126 -96
282 -18 187 15 340 91 421 l38 41 315 -4 316 -3 0 202 0 201 -377 -3 c-348 -4
-382 -6 -434 -24 -158 -57 -269 -173 -339 -354 -16 -42 -34 -106 -41 -143
l-12 -67 -514 0 c-282 0 -513 2 -513 5 0 18 34 83 62 117 60 76 70 78 436 78
l322 0 0 195 0 195 -357 -1 c-250 -1 -380 -5 -431 -14z"/>
<path d="M2179 3054 c-11 -13 -6 -44 30 -192 24 -98 50 -187 57 -199 9 -14 24
-23 39 -23 35 0 48 26 89 174 20 71 38 131 40 133 4 4 15 -30 56 -182 27 -98
43 -125 75 -125 37 0 49 28 91 205 20 88 41 164 46 170 4 5 8 -75 8 -178 0
-165 2 -188 16 -194 37 -14 49 10 54 108 7 109 12 123 50 139 61 25 80 -11 80
-156 0 -88 6 -100 46 -90 24 6 24 8 24 121 0 63 -5 125 -11 138 -24 52 -108
67 -160 28 l-28 -21 -3 78 c-3 76 -3 77 -31 80 -22 3 -30 -1 -34 -18 l-6 -21
-14 21 c-16 23 -45 26 -61 8 -5 -7 -22 -69 -37 -138 -15 -69 -30 -128 -34
-132 -3 -4 -21 50 -40 120 -35 134 -50 162 -86 162 -36 0 -52 -29 -88 -165
-19 -71 -37 -123 -41 -115 -3 8 -17 69 -32 135 -14 66 -31 126 -36 133 -14 17
-43 15 -59 -4z"/>
<path d="M7020 3055 c-84 -38 -128 -126 -116 -229 17 -136 121 -207 261 -179
45 10 53 8 85 -13 40 -27 62 -30 79 -10 10 11 7 19 -10 35 -13 11 -31 23 -41
27 -22 6 -23 17 -4 33 22 18 39 96 34 158 -9 123 -68 183 -186 190 -47 2 -78
-1 -102 -12z m124 -55 c25 0 65 -48 76 -91 13 -47 6 -117 -14 -144 -12 -16
-15 -16 -54 4 -69 35 -100 7 -34 -32 l37 -22 -42 -3 c-23 -2 -52 2 -63 8 -61
33 -82 164 -37 231 22 34 79 62 105 53 8 -2 19 -4 26 -4z"/>
<path d="M7922 3058 c-8 -8 -12 -68 -12 -203 0 -198 3 -215 42 -215 30 0 38
43 38 215 0 90 -4 175 -10 189 -10 28 -38 34 -58 14z"/>
<path d="M8022 3058 c-28 -28 -1 -75 38 -63 14 4 20 15 20 35 0 36 -33 53 -58
28z"/>
<path d="M3721 3046 c-8 -9 -11 -71 -9 -201 3 -166 5 -189 21 -199 12 -8 22
-8 35 0 13 9 18 28 20 87 l3 75 79 4 c93 4 127 23 149 85 12 34 13 48 2 83
-19 65 -53 80 -182 80 -78 0 -110 -4 -118 -14z m197 -62 c26 -18 30 -75 6 -95
-9 -7 -42 -15 -75 -17 l-59 -4 0 66 0 66 53 0 c31 0 61 -6 75 -16z"/>
<path d="M5360 3041 c-6 -12 -10 -92 -10 -191 0 -176 6 -210 39 -210 34 0 40
23 43 171 l3 144 34 -135 c18 -74 40 -145 47 -157 16 -25 55 -31 72 -10 5 6
28 80 50 162 l40 150 1 -151 c1 -154 6 -174 43 -174 32 0 38 35 38 210 0 99
-4 179 -10 191 -8 15 -21 19 -59 19 -27 0 -53 -6 -58 -12 -6 -7 -23 -60 -37
-117 -15 -57 -31 -113 -35 -124 -10 -25 -6 -36 -47 118 -36 136 -35 135 -94
135 -39 0 -52 -4 -60 -19z"/>
<path d="M6380 3034 c-6 -14 -10 -38 -10 -54 0 -20 -6 -31 -20 -35 -25 -8 -26
-30 -1 -47 15 -11 19 -30 23 -117 3 -93 6 -105 27 -122 31 -25 104 -26 129 -1
16 16 19 16 52 0 63 -33 174 -16 199 30 15 28 14 74 -2 96 -7 10 -49 30 -93
44 -63 22 -79 31 -79 47 0 12 10 23 27 29 27 9 28 9 94 -39 28 -21 60 1 50 33
-17 52 -151 75 -204 35 -38 -28 -50 -67 -31 -101 11 -20 33 -33 88 -52 80 -27
103 -48 82 -74 -23 -28 -79 -20 -112 15 -32 35 -62 35 -67 1 -3 -20 -8 -23
-40 -20 l-37 3 -3 92 -3 91 31 7 c25 5 31 11 28 28 -2 16 -11 23 -30 25 -26 3
-28 7 -28 46 0 23 -5 47 -12 54 -20 20 -48 14 -58 -14z"/>
<path d="M8130 3041 c-5 -11 -10 -35 -10 -54 0 -27 -5 -36 -22 -40 -12 -3 -28
-2 -37 3 -9 5 -23 4 -33 -1 -16 -9 -18 -26 -18 -147 0 -143 5 -162 42 -162 26
0 34 33 32 134 -2 102 3 127 21 120 9 -4 14 -36 17 -111 3 -98 5 -106 28 -125
20 -16 35 -19 73 -15 76 7 91 48 21 57 l-39 5 -3 91 -3 90 35 11 35 11 51
-130 c47 -117 51 -132 40 -159 -11 -26 -40 -43 -66 -38 -25 4 -35 -3 -32 -23
7 -47 120 -42 152 6 20 32 136 336 136 358 0 19 -28 38 -46 31 -7 -2 -29 -53
-50 -113 -21 -61 -41 -107 -45 -102 -3 4 -21 50 -39 102 -38 109 -53 127 -86
105 -14 -9 -25 -11 -29 -5 -3 6 -17 10 -31 10 -22 0 -24 4 -24 43 0 24 -5 48
-12 55 -18 18 -46 14 -58 -7z"/>
<path d="M3110 2950 c-83 -20 -130 -125 -95 -215 27 -73 100 -108 188 -91 41
8 87 47 87 74 0 32 -26 33 -66 1 -54 -43 -103 -39 -129 12 -8 15 -15 33 -15
39 0 6 36 10 99 10 113 0 127 8 117 65 -7 38 -47 91 -74 99 -42 11 -80 14
-112 6z m94 -72 c33 -47 23 -58 -55 -58 -68 0 -70 1 -63 23 17 58 87 79 118
35z"/>
<path d="M3456 2949 c-15 -4 -36 -15 -46 -24 -17 -15 -19 -15 -25 4 -7 23 -49
29 -61 9 -11 -18 -14 -246 -4 -274 10 -26 38 -32 58 -12 7 7 12 44 12 95 0 45
5 93 11 107 15 33 60 52 88 36 25 -13 22 0 30 -135 5 -95 8 -110 24 -113 39
-8 47 15 47 129 0 59 -5 119 -11 132 -18 39 -73 59 -123 46z"/>
<path d="M4128 2950 c-77 -14 -118 -68 -118 -158 0 -117 125 -190 230 -133 91
48 102 202 19 263 -33 25 -84 36 -131 28z m82 -70 c25 -25 34 -61 27 -107 -8
-46 -33 -73 -69 -73 -44 0 -66 16 -77 58 -27 97 58 183 119 122z"/>
<path d="M4327 2948 c-24 -13 -22 -30 23 -162 44 -133 52 -146 87 -146 28 0
40 25 69 133 10 37 21 67 25 67 4 0 10 -12 14 -27 28 -118 48 -163 72 -169 15
-4 30 -1 39 8 19 18 104 266 98 283 -8 20 -30 25 -48 12 -9 -7 -27 -50 -41
-97 -14 -47 -28 -92 -31 -100 -3 -8 -19 30 -34 84 -30 105 -47 130 -83 117
-17 -6 -28 -30 -51 -110 -17 -55 -33 -98 -36 -94 -4 5 -12 26 -18 48 -45 165
-50 173 -85 153z"/>
<path d="M4852 2950 c-109 -26 -146 -192 -60 -271 67 -64 225 -43 236 31 6 40
-13 44 -58 11 -62 -45 -109 -41 -135 10 -8 15 -15 33 -15 39 0 6 36 10 98 10
63 0 102 4 110 12 28 28 -1 110 -50 141 -31 19 -85 27 -126 17z m90 -67 c10
-9 18 -27 18 -40 0 -22 -3 -23 -71 -23 -68 0 -70 1 -63 23 16 55 76 76 116 40z"/>
<path d="M5077 2949 c-15 -9 -17 -28 -17 -147 0 -143 5 -162 42 -162 26 0 38
40 38 128 0 103 14 124 78 120 41 -3 47 0 50 18 6 44 -69 64 -109 28 -16 -14
-23 -16 -26 -6 -8 20 -37 31 -56 21z"/>
<path d="M5867 2946 c-76 -27 -101 -70 -95 -162 4 -71 27 -106 85 -130 67 -29
156 -9 189 41 15 22 15 28 3 40 -12 12 -20 10 -58 -15 -24 -17 -56 -30 -71
-30 -32 0 -70 37 -70 68 0 21 4 22 89 22 49 0 96 2 104 6 10 4 16 -5 20 -33 7
-43 45 -85 90 -102 65 -25 152 -4 183 44 15 22 15 28 3 40 -12 12 -20 10 -58
-15 -24 -17 -56 -30 -71 -30 -32 0 -70 37 -70 68 0 21 4 22 89 22 49 0 96 3
105 6 21 8 21 68 0 104 -51 86 -201 85 -254 -2 l-19 -31 -12 27 c-25 55 -115
85 -182 62z m102 -72 c36 -46 29 -54 -49 -54 -60 0 -70 2 -70 18 0 61 80 85
119 36z m290 0 c36 -46 29 -54 -49 -54 -60 0 -70 2 -70 18 0 61 80 85 119 36z"/>
<path d="M7335 2944 c-14 -15 -16 -35 -13 -135 3 -105 5 -121 24 -140 32 -31
95 -36 139 -10 44 26 41 25 48 1 8 -31 47 -26 59 8 l11 28 28 -28 c34 -34 87
-37 144 -8 l39 20 23 -22 c19 -18 27 -20 41 -11 10 6 16 21 15 34 -1 13 -3 55
-3 94 -1 143 -28 179 -134 179 -72 -1 -123 -23 -132 -59 -15 -58 18 -72 59
-25 43 47 127 39 127 -12 0 -11 -10 -20 -27 -24 -113 -25 -140 -35 -160 -59
l-23 -26 0 88 c0 92 -4 105 -32 116 -35 13 -48 -18 -48 -117 0 -84 -2 -95 -23
-114 -26 -24 -71 -29 -84 -9 -4 6 -10 59 -13 116 -4 92 -7 105 -26 118 -19 12
-24 12 -39 -3z m475 -179 c0 -54 -83 -98 -118 -63 -29 29 -6 65 51 78 58 14
67 12 67 -15z"/>
<path d="M2005 2894 c-244 -179 -586 -361 -824 -438 -428 -138 -695 -48 -730
247 l-7 62 -16 -55 c-45 -154 -52 -312 -18 -404 25 -66 90 -130 152 -147 254
-73 732 145 1281 587 218 174 298 248 162 148z"/>
</g>
</svg>
